<svg xmlns="http://www.w3.org/2000/svg" xmlns:svg="http://www.w3.org/2000/svg" id="Layer_1" data-name="Layer 1" version="1.1" viewBox="0 0 622 682"><metadata id="metadata26"/><defs id="defs4"><style id="style2">.cls-1{fill:#5c5c5c}.cls-2{fill:#a1a1a1}.cls-3{fill:#787878}</style></defs><title id="title6">stacked_wm_grayscale</title><g id="g36" transform="translate(17.338983,63.576271)"><g id="g3716" transform="matrix(1.3756945,0,0,1.436306,-136.76255,-58.287736)"><path id="path46" d="m 525.05,266.61 -24,-74 L 453.36,46 a 8.19,8.19 0 0 0 -15.58,0 L 390.12,192.62 H 231.88 L 184.22,46 a 8.19,8.19 0 0 0 -15.58,0 L 121,192.62 l -24,74 a 16.38,16.38 0 0 0 6,18.31 L 311,436.09 519.1,284.92 a 16.38,16.38 0 0 0 6,-18.31" class="cls-2" style="fill:#ddd;opacity:1"/><path id="path50" d="m 311,436.09 v 0 L 390.12,192.62 H 231.88 Z" class="cls-1" style="fill:#7e7e7e;opacity:1"/><path id="path58" d="M 311,436.09 231.88,192.62 H 121 Z" class="cls-3" style="fill:#a4a4a4;opacity:1"/><path id="path66" d="m 121,192.62 v 0 l -24,74 a 16.37,16.37 0 0 0 6,18.31 l 208,151.16 z" class="cls-2" style="fill:#ddd;opacity:1"/><path id="path74" d="M 121,192.62 H 231.88 L 184.22,46 a 8.19,8.19 0 0 0 -15.58,0 z" class="cls-1" style="fill:#7e7e7e;opacity:1"/><path id="path78" d="M 311,436.09 390.12,192.62 H 501 Z" class="cls-3" style="fill:#a4a4a4;opacity:1"/><path id="path82" d="m 501,192.62 v 0 l 24,74 a 16.37,16.37 0 0 1 -6,18.31 L 311,436.09 Z" class="cls-2" style="fill:#ddd;opacity:1"/><path id="path86" d="M 501,192.62 H 390.12 L 437.78,46 a 8.19,8.19 0 0 1 15.58,0 z" class="cls-1" style="fill:#7e7e7e;opacity:1"/></g></g></svg>